<?xml version="1.0" encoding="utf-8"?>
<!-- Generator: Adobe Illustrator 12.0.1, SVG Export Plug-In . SVG Version: 6.00 Build 51448)  -->
<!DOCTYPE svg PUBLIC "-//W3C//DTD SVG 1.1//EN" "http://www.w3.org/Graphics/SVG/1.1/DTD/svg11.dtd" [
	<!ENTITY ns_svg "http://www.w3.org/2000/svg">
	<!ENTITY ns_xlink "http://www.w3.org/1999/xlink">
]>
<svg  version="1.1" id="Layer_1" xmlns="http://www.w3.org/2000/svg" xmlns:xlink="http://www.w3.org/1999/xlink" width="83.097" height="84.172"
	 viewBox="0 0 83.097 84.172" overflow="visible" enable-background="new 0 0 83.097 84.172" xml:space="preserve">
<path fill="#010101" d="M62.872,58.006c-1.247,0.368-2.242,0.506-3.547,0.506c-10.691,0-26.389-37.359-26.389-49.793
	c0-4.577,1.083-6.104,2.613-7.415C22.465,2.831,6.765,7.633,1.745,13.737C0.66,15.266,0,17.663,0,20.717
	c0,19.41,20.718,63.455,35.332,63.455C42.095,84.173,53.493,73.06,62.872,58.006"/>
<path fill="#010101" d="M56.048,0c13.52,0,27.049,2.18,27.049,9.812c0,15.483-9.818,34.246-14.832,34.246
	c-8.941,0-20.064-24.867-20.064-37.301C48.2,1.087,50.381,0,56.048,0"/>
</svg>
